<svg width="1062" height="490" viewBox="0 0 1062 490" fill="none" xmlns="http://www.w3.org/2000/svg">
<path fill-rule="evenodd" clip-rule="evenodd" d="M334.367 119.914H0L33.1126 153.016H316.721C310.948 165.565 306.591 178.659 303.623 192.325H71.6714L105.22 225.454H298.15C297.578 234.002 297.306 240.481 297.306 244.891C297.306 249.301 297.578 255.807 298.15 264.355H143.724L177.272 297.457H303.623C306.591 311.259 310.948 324.298 316.721 336.576H216.73L249.652 369.678H334.367C355.607 402.834 383.518 429.213 418.156 448.785C452.766 468.331 490.344 478.104 530.918 478.104C571.465 478.104 609.125 468.304 643.872 448.677C678.618 429.049 706.502 402.698 727.47 369.678H812.348L845.897 336.576H745.715C751.542 324.298 755.953 311.259 758.949 297.457H885.381L918.521 264.355H764.068C764.64 255.807 764.912 249.301 764.912 244.891C764.912 240.481 764.64 234.002 764.068 225.454H957.407L990.519 192.325H758.949C755.953 178.659 751.542 165.565 745.715 153.016H1028.89L1062 119.914H727.47C706.502 86.9477 678.618 60.6782 643.872 41.1599C609.125 21.6416 571.465 11.896 530.918 11.896C490.344 11.896 452.766 21.6143 418.156 41.051C383.518 60.5149 355.607 86.7843 334.367 119.914ZM331.262 244.891C331.262 217.859 336.545 191.998 347.083 167.308C357.622 142.617 371.836 121.357 389.7 103.499C407.563 85.6683 428.803 71.4582 453.42 60.8688C478.036 50.2794 503.878 44.9982 530.918 44.9982C557.931 44.9982 583.8 50.2794 608.499 60.8688C633.17 71.4582 654.464 85.6683 672.328 103.499C690.191 121.357 704.406 142.617 715.053 167.308C725.673 191.998 730.983 217.859 730.983 244.891C730.983 271.923 725.673 297.811 715.053 322.502C704.406 347.165 690.191 368.48 672.328 386.392C654.464 404.304 633.17 418.542 608.499 429.131C583.8 439.721 557.931 445.002 530.918 445.002C503.878 445.002 478.036 439.721 453.42 429.131C428.803 418.542 407.563 404.304 389.7 386.392C371.836 368.48 357.622 347.165 347.083 322.502C336.545 297.811 331.262 271.923 331.262 244.891Z" fill="white"/>
</svg>
