<svg width="315" height="140" viewBox="0 0 315 140" fill="none" xmlns="http://www.w3.org/2000/svg">
<path d="M0 32.4325H99.1765C105.477 22.4853 113.755 14.5979 124.029 8.75383C134.295 2.91794 145.441 0 157.476 0C169.502 0 180.673 2.92612 190.979 8.78653C201.285 14.6469 209.556 22.5344 215.775 32.4325H315L305.178 42.3715H221.187C222.915 46.1395 224.223 50.0709 225.112 54.174H293.798L283.977 64.1212H226.63C226.8 66.6877 226.881 68.633 226.881 69.9571C226.881 71.2812 226.8 73.2346 226.63 75.8011H272.443L262.613 85.7401H225.112C224.223 89.8841 222.915 93.7992 221.187 97.4854H250.902L240.951 107.424H215.775C209.556 117.339 201.285 125.251 190.979 131.144C180.673 137.037 169.502 139.98 157.476 139.98C145.441 139.98 134.295 137.045 124.029 131.177C113.755 125.3 105.477 117.38 99.1765 107.424H74.0492L64.2842 97.4854H93.9427C92.2304 93.7992 90.9381 89.8841 90.0577 85.7401H52.5808L42.63 75.8011H88.4342C88.2646 73.2346 88.1839 71.2812 88.1839 69.9571C88.1839 68.633 88.2646 66.6877 88.4342 64.1212H31.2092L21.2585 54.174H90.0577C90.9381 50.0709 92.2304 46.1395 93.9427 42.3715H9.82154L0 32.4325ZM102.948 46.6626C99.8227 54.0759 98.2558 61.8408 98.2558 69.9571C98.2558 78.0734 99.8227 85.8464 102.948 93.2597C106.074 100.665 110.29 107.065 115.589 112.443C120.887 117.821 127.187 122.096 134.489 125.275C141.79 128.455 149.455 130.041 157.476 130.041C165.488 130.041 173.161 128.455 180.487 125.275C187.805 122.096 194.121 117.821 199.419 112.443C204.718 107.065 208.934 100.665 212.092 93.2597C215.242 85.8464 216.817 78.0734 216.817 69.9571C216.817 61.8408 215.242 54.0759 212.092 46.6626C208.934 39.2492 204.718 32.8657 199.419 27.5039C194.121 22.1502 187.805 17.8836 180.487 14.7041C173.161 11.5247 165.488 9.93899 157.476 9.93899C149.455 9.93899 141.79 11.5247 134.489 14.7041C127.187 17.8836 120.887 22.1502 115.589 27.5039C110.29 32.8657 106.074 39.2492 102.948 46.6626ZM110.218 85.7401H116.356L116.178 62.1922L123.609 85.7401L130.434 85.6992L137.728 62.3148V85.7401H144.278V54.174L135.054 54.1658L127.139 79.3402L119.07 54.1985L110.218 54.174V85.7401ZM151.337 85.7401H157.839V54.174H151.337V85.7401ZM164.898 85.7401H171.158V63.0014L183.613 85.7401H191.165V54.174H185.026V77.0435L172.572 54.174H164.898V85.7401ZM198.345 85.7401H204.726V54.174H198.345V85.7401Z" fill="black"/>
</svg>
